<svg width="128" height="128" viewBox="0 0 128 128" fill="none" xmlns="http://www.w3.org/2000/svg">
  <defs>
    <linearGradient id="bg" x1="0" y1="0" x2="128" y2="128" gradientUnits="userSpaceOnUse">
      <stop offset="0%" stop-color="#38bdf8"/>
      <stop offset="100%" stop-color="#6366f1"/>
    </linearGradient>
    <radialGradient id="glow" cx="0" cy="0" r="1" gradientUnits="userSpaceOnUse" gradientTransform="translate(28 22) rotate(45) scale(60)">
      <stop stop-color="#ffffff" stop-opacity="0.55"/>
      <stop offset="1" stop-color="#ffffff" stop-opacity="0"/>
    </radialGradient>
    <linearGradient id="bar" x1="0" y1="30" x2="0" y2="52" gradientUnits="userSpaceOnUse">
      <stop offset="0%" stop-color="#38bdf8"/>
      <stop offset="100%" stop-color="#0ea5e9"/>
    </linearGradient>
  </defs>
  <rect width="128" height="128" rx="28" fill="url(#bg)"/>
  <rect width="128" height="128" rx="28" fill="url(#glow)"/>
  <rect x="30" y="34" width="76" height="72" rx="18" fill="#0f172a" opacity="0.18"/>
  <rect x="26" y="30" width="76" height="72" rx="18" fill="#f8fafc"/>
  <rect x="26" y="30" width="76" height="22" rx="18" fill="url(#bar)"/>
  <rect x="26" y="46" width="76" height="6" fill="url(#bar)"/>
  <rect x="40" y="20" width="12" height="20" rx="6" fill="#0f172a" opacity="0.85"/>
  <rect x="76" y="20" width="12" height="20" rx="6" fill="#0f172a" opacity="0.85"/>
  <rect x="34" y="58" width="14" height="14" rx="4" fill="#e2e8f0"/>
  <rect x="57" y="58" width="14" height="14" rx="4" fill="#e2e8f0"/>
  <rect x="80" y="58" width="14" height="14" rx="4" fill="#e2e8f0"/>
  <rect x="34" y="78" width="14" height="14" rx="4" fill="#0ea5e9"/>
  <rect x="57" y="78" width="14" height="14" rx="4" fill="#e2e8f0"/>
  <rect x="80" y="78" width="14" height="14" rx="4" fill="#e2e8f0"/>
  <path d="M40 84l4 4 8-10" stroke="#ffffff" stroke-width="4" stroke-linecap="round" stroke-linejoin="round"/>
  <path d="M96 16l4 10 10 4-10 4-4 10-4-10-10-4 10-4 4-10z" fill="#fbbf24"/>
</svg>
